<?xml version="1.0" encoding="iso-8859-1"?>
<!-- Generator: Adobe Illustrator 16.0.0, SVG Export Plug-In . SVG Version: 6.00 Build 0)  -->
<!DOCTYPE svg PUBLIC "-//W3C//DTD SVG 1.1//EN" "http://www.w3.org/Graphics/SVG/1.1/DTD/svg11.dtd">
<svg version="1.1" id="Capa_1" xmlns="http://www.w3.org/2000/svg" xmlns:xlink="http://www.w3.org/1999/xlink" x="0px" y="0px"
	 width="612px" height="611.999px" viewBox="0 0 612 611.999" style="enable-background:new 0 0 612 611.999;" xml:space="preserve"
	>
<g>
	<g>
		<g>
			<path d="M398.646,192.047c-5.278,0-9.562-4.283-9.562-9.563c0-5.28,4.283-9.563,9.562-9.563h179.078
				c9.383,0,17.93,3.865,24.146,10.061l0.04,0.04c6.195,6.216,10.08,14.802,10.08,24.165v370.547c0,9.402-3.864,18.01-10.061,24.205
				l-0.638,0.577c-6.156,5.856-14.464,9.482-23.567,9.482H34.295c-9.423,0-18.009-3.864-24.205-10.061
				c-6.216-6.215-10.081-14.801-10.081-24.224V207.168c0-9.363,3.865-17.95,10.061-24.166l0.02-0.02l-0.02-0.02
				c6.196-6.196,14.802-10.061,24.205-10.061h179.098c5.279,0,9.563,4.283,9.563,9.563c0,5.28-4.283,9.563-9.563,9.563H34.275
				c-4.144,0-7.949,1.713-10.678,4.462h-0.02c-2.729,2.729-4.442,6.534-4.442,10.678v370.547c0,4.124,1.733,7.929,4.462,10.678
				c2.75,2.749,6.535,4.464,10.678,4.464h543.449c3.984,0,7.63-1.574,10.339-4.104l0.339-0.358
				c2.749-2.749,4.463-6.533,4.463-10.678V207.168c0-4.144-1.732-7.969-4.481-10.718c-2.75-2.709-6.535-4.422-10.658-4.422H398.646
				V192.047z"/>
			<path d="M293.657,513.168c-5.279,0-9.563-4.283-9.563-9.562c0-5.28,4.283-9.563,9.563-9.563h148.219
				c5.279,0,9.562,4.283,9.562,9.563c0,5.279-4.282,9.562-9.562,9.562H293.657L293.657,513.168z M293.657,463.762
				c-5.279,0-9.563-4.283-9.563-9.562c0-5.28,4.283-9.563,9.563-9.563h234.68c5.279,0,9.562,4.283,9.562,9.563
				c0,5.279-4.282,9.562-9.562,9.562H293.657L293.657,463.762z M293.657,414.355c-5.279,0-9.563-4.283-9.563-9.563
				s4.283-9.562,9.563-9.562h234.68c5.279,0,9.562,4.282,9.562,9.562s-4.282,9.563-9.562,9.563H293.657L293.657,414.355z
				 M293.657,364.949c-5.279,0-9.563-4.283-9.563-9.563c0-5.279,4.283-9.562,9.563-9.562h234.68c5.279,0,9.562,4.283,9.562,9.562
				c0,5.28-4.282,9.563-9.562,9.563H293.657z"/>
			<path d="M161.496,345.824c16.216,0,30.958,6.594,41.657,17.271l0.02,0.021l0.02,0.02l0.02,0.021
				c10.658,10.698,17.252,25.42,17.252,41.637c0,16.236-6.614,30.998-17.272,41.656l-0.04,0.04
				c-10.658,10.658-25.42,17.271-41.657,17.271c-16.237,0-30.999-6.614-41.657-17.271l-0.04-0.04
				c-10.658-10.658-17.272-25.42-17.272-41.656s6.614-30.999,17.272-41.657l0.04-0.039
				C130.517,352.438,145.259,345.824,161.496,345.824L161.496,345.824z M189.666,376.583c-7.172-7.191-17.153-11.634-28.169-11.634
				c-10.997,0-20.958,4.462-28.169,11.634l-0.04,0.04c-7.172,7.212-11.614,17.173-11.614,28.17s4.442,20.958,11.614,28.169
				l0.04,0.04c7.211,7.172,17.172,11.614,28.169,11.614c10.997,0,20.958-4.442,28.169-11.614l0.04-0.04
				c7.172-7.211,11.614-17.172,11.614-28.169c0-11.017-4.442-20.998-11.614-28.17L189.666,376.583z"/>
			<path d="M112.09,513.168c-5.279,0-9.563-4.283-9.563-9.562c0-5.28,4.283-9.563,9.563-9.563h98.813
				c5.279,0,9.563,4.283,9.563,9.563c0,5.279-4.283,9.562-9.563,9.562H112.09z"/>
			<path d="M398.646,241.453c-5.278,0-9.562-4.283-9.562-9.563c0-5.28,4.283-9.563,9.562-9.563h49.406
				c5.279,0,9.563,4.283,9.563,9.563v0.239v49.167c0,5.279-4.283,9.563-9.563,9.563h-0.239H163.966
				c-5.279,0-9.563-4.283-9.563-9.563v-0.259V231.87c0-5.279,4.283-9.563,9.563-9.563h0.239h49.147c5.279,0,9.563,4.283,9.563,9.563
				c0,5.28-4.283,9.563-9.563,9.563h-39.843v30.281h264.98v-30.281h-39.845L398.646,241.453L398.646,241.453z"/>
			<path d="M262.779,0h0.239h86.202c5.279,0,9.563,4.283,9.563,9.563v0.239v222.069c0,5.279-4.283,9.563-9.563,9.563h-0.239h-86.202
				c-5.279,0-9.563-4.283-9.563-9.563v-0.259V9.563C253.216,4.283,257.519,0,262.779,0L262.779,0z M339.658,19.125h-67.316v203.184
				h67.316V19.125z"/>
			<circle cx="306.009" cy="58.949" r="16.057"/>
		</g>
	</g>
</g>
<g>
</g>
<g>
</g>
<g>
</g>
<g>
</g>
<g>
</g>
<g>
</g>
<g>
</g>
<g>
</g>
<g>
</g>
<g>
</g>
<g>
</g>
<g>
</g>
<g>
</g>
<g>
</g>
<g>
</g>
</svg>
